<?xml version="1.0" standalone="no"?>
<!DOCTYPE svg PUBLIC "-//W3C//DTD SVG 20010904//EN"
 "http://www.w3.org/TR/2001/REC-SVG-20010904/DTD/svg10.dtd">
<svg version="1.0" xmlns="http://www.w3.org/2000/svg"
 width="522.000000pt" height="522.000000pt" viewBox="0 0 522.000000 522.000000"
 preserveAspectRatio="xMidYMid meet">
<metadata>
Created by potrace 1.14, written by Peter Selinger 2001-2017
</metadata>
<g transform="translate(0.000000,522.000000) scale(0.100000,-0.100000)"
fill="#000000" stroke="none">
<path d="M460 2726 c0 -1656 1 -1744 18 -1741 9 2 20 4 23 4 3 1 6 783 6 1739
l0 1738 -24 2 -23 2 0 -1744z"/>
<path d="M551 2729 c0 -957 3 -1739 7 -1740 4 0 15 -2 25 -4 16 -3 17 85 17
1740 l0 1743 -24 0 -25 0 0 -1739z"/>
<path d="M699 4463 c-1 -11 -1 -3215 0 -3230 1 -7 10 -13 21 -13 20 0 20 5 18
1622 -3 1536 -4 1623 -20 1626 -10 2 -18 0 -19 -5z"/>
<path d="M839 4461 c-1 -8 -1 -3212 0 -3228 1 -9 17 -13 46 -13 l44 0 -2 1623
-2 1622 -42 1 c-24 0 -43 -2 -44 -5z"/>
<path d="M983 4461 c-5 -3 -9 -734 -8 -1624 l0 -1618 94 3 94 3 0 1605 c-1
883 -2 1612 -2 1621 -1 13 -15 16 -85 16 -47 0 -89 -3 -93 -6z"/>
<path d="M1210 2845 l0 -1625 23 0 24 0 -1 1622 -1 1621 -22 3 -23 4 0 -1625z"/>
<path d="M1350 2843 l0 -1623 70 0 70 0 0 1624 0 1624 -70 -1 -70 0 0 -1624z"/>
<path d="M1545 4459 c-6 -8 -11 -3132 -6 -3226 1 -7 11 -13 24 -13 l22 0 0
1622 c0 1500 -1 1623 -17 1626 -9 2 -19 -2 -23 -9z"/>
<path d="M1630 2843 l0 -1624 48 3 47 3 0 1620 0 1620 -47 1 -48 1 0 -1624z"/>
<path d="M1875 4462 c-7 -5 -11 -519 -10 -1622 l0 -1615 23 -3 c16 -2 22 2 23
15 3 61 4 3201 0 3216 -4 18 -19 22 -36 9z"/>
<path d="M2100 2843 l0 -1624 23 3 22 3 0 1620 0 1620 -22 1 -23 1 0 -1624z"/>
<path d="M2193 2844 l0 -1624 24 0 23 0 0 1624 0 1624 -23 0 -24 0 0 -1624z"/>
<path d="M2339 4463 c-1 -11 -1 -3180 0 -3215 1 -21 6 -28 21 -28 20 0 20 5
18 1622 -3 1536 -4 1623 -20 1626 -10 2 -18 0 -19 -5z"/>
<path d="M2527 4462 c-2 -4 -3 -734 -3 -1622 l1 -1615 23 -3 22 -3 0 1623 c0
1611 0 1624 -20 1625 -11 1 -21 -1 -23 -5z"/>
<path d="M2617 4463 c-2 -5 -3 -788 -3 -1742 l1 -1734 23 -2 c17 -1 22 4 23
24 1 34 1 3444 0 3454 -1 4 -10 7 -20 7 -11 0 -22 -3 -24 -7z"/>
<path d="M2710 2731 c0 -1804 -1 -1767 37 -1743 10 7 17 3411 7 3460 -3 14
-12 22 -24 22 -20 0 -20 -12 -20 -1739z"/>
<path d="M2808 4457 c-2 -7 -3 -736 -3 -1622 l0 -1610 23 -3 22 -3 0 1623 c0
1594 0 1624 -19 1625 -11 1 -21 -4 -23 -10z"/>
<path d="M2950 4410 c-1 -30 -1 -759 -1 -1620 l-1 -1565 21 -3 21 -3 0 1625
c0 1619 0 1625 -20 1623 -17 -1 -20 -9 -20 -57z"/>
<path d="M3143 4461 c-5 -3 -9 -734 -8 -1624 l0 -1618 70 3 70 3 1 1610 c0
886 -2 1615 -4 1622 -4 12 -113 15 -129 4z"/>
<path d="M3320 2843 l0 -1623 25 0 25 0 0 1625 0 1625 -25 -2 -25 -2 0 -1623z"/>
<path d="M3460 2843 l0 -1624 72 3 73 3 -1 1620 0 1620 -72 1 -72 0 0 -1623z"/>
<path d="M3704 4459 c-4 -7 -7 -737 -7 -1623 0 -1536 1 -1611 18 -1614 10 -2
20 1 24 6 3 6 6 736 6 1623 0 1489 -2 1614 -17 1617 -9 2 -19 -2 -24 -9z"/>
<path d="M3789 4426 c0 -54 0 -3166 0 -3188 1 -15 10 -18 49 -18 l47 0 0 1623
0 1622 -47 1 -48 2 -1 -42z"/>
<path d="M3979 4461 c-1 -3 -2 -734 -3 -1623 l-1 -1618 47 0 c43 0 48 2 49 23
1 29 1 3163 0 3199 -1 26 -4 27 -46 26 -25 0 -46 -3 -46 -7z"/>
<path d="M4110 2843 l0 -1623 50 0 50 0 0 1624 0 1624 -50 -1 -50 0 0 -1624z"/>
<path d="M4256 4463 c-3 -4 -6 -735 -6 -1625 l0 -1618 50 0 50 0 0 1623 0
1623 -44 1 c-24 1 -47 -1 -50 -4z"/>
<path d="M4440 2843 l0 -1624 23 3 22 3 0 1620 0 1620 -22 1 -23 1 0 -1624z"/>
<path d="M4673 2844 l0 -1624 24 0 c12 0 23 6 24 13 0 15 0 3173 -1 3208 0 21
-5 27 -23 27 l-24 0 0 -1624z"/>
<path d="M4769 4466 c-1 -1 -1 -3423 0 -3456 1 -19 6 -26 21 -26 11 0 22 7 24
16 2 8 3 791 2 1740 l-1 1725 -23 1 c-12 1 -22 1 -23 0z"/>
<path d="M4860 2731 c0 -1713 0 -1739 19 -1744 11 -3 22 -2 25 1 3 3 6 787 6
1741 l0 1737 -25 2 -25 2 0 -1739z"/>
<path d="M58 1149 c-40 -20 -56 -33 -52 -43 4 -11 12 -13 31 -5 60 23 59 26
58 -166 0 -171 0 -176 20 -173 19 3 20 11 23 204 2 158 0 203 -11 207 -7 2
-38 -8 -69 -24z"/>
<path d="M715 1166 c-16 -7 -41 -25 -54 -40 -22 -24 -23 -28 -9 -42 14 -14 18
-12 46 15 63 64 143 35 137 -49 -3 -46 -28 -82 -124 -183 -36 -37 -65 -76 -66
-87 -2 -19 5 -20 122 -20 123 0 123 0 123 24 0 23 -2 23 -90 22 l-90 -1 44 45
c111 114 127 139 129 205 1 48 -14 85 -44 103 -31 19 -91 23 -124 8z"/>
<path d="M1034 1166 c-37 -16 -50 -34 -36 -48 7 -7 17 -6 32 2 43 23 69 22 96
-5 21 -21 24 -31 18 -58 -6 -30 -28 -55 -49 -57 -69 -8 -74 -32 -10 -44 49 -9
75 -38 75 -81 0 -68 -76 -100 -133 -55 -26 20 -26 20 -36 1 -6 -11 -11 -22
-11 -26 0 -12 82 -42 110 -40 49 4 98 42 111 85 15 49 7 79 -29 115 -28 28
-29 29 -11 44 40 34 41 118 1 154 -26 23 -90 30 -128 13z"/>
<path d="M1473 1163 c-34 -30 -183 -257 -183 -279 0 -18 7 -20 83 -19 l82 0 5
-50 c4 -42 8 -50 28 -53 12 -2 22 0 23 5 0 4 2 26 3 48 4 54 3 53 28 51 17 -1
23 5 23 19 0 15 -7 20 -25 20 l-25 0 0 127 c0 138 -8 161 -42 131z m-17 -248
c-5 -15 -101 -14 -101 0 0 6 23 45 50 87 l50 78 3 -77 c2 -42 1 -82 -2 -88z"/>
<path d="M1660 1170 c-4 -3 -11 -51 -15 -107 -6 -97 -6 -103 12 -103 11 0 28
7 39 15 20 15 61 19 89 9 21 -8 45 -56 45 -89 0 -33 -24 -81 -45 -89 -35 -13
-76 -6 -100 18 -20 21 -26 22 -42 11 -15 -11 -16 -15 -3 -31 27 -32 91 -54
133 -44 49 11 66 26 89 78 31 69 13 137 -45 172 -35 22 -78 26 -108 10 -18
-10 -19 -7 -19 50 l0 60 85 0 c81 0 85 1 85 23 0 21 -3 22 -96 22 -52 0 -99
-2 -104 -5z"/>
<path d="M2043 1161 c-18 -11 -39 -31 -47 -44 -42 -64 -52 -191 -22 -272 24
-63 48 -80 111 -80 45 0 57 4 79 28 32 34 40 65 33 125 -4 37 -12 53 -41 79
-40 37 -74 42 -120 18 -16 -9 -31 -13 -33 -11 -2 2 0 22 6 43 19 71 82 108
130 76 23 -15 25 -14 37 2 12 16 11 20 -5 31 -35 25 -93 27 -128 5z m86 -195
c31 -33 32 -108 1 -141 -43 -45 -96 -24 -119 47 -15 46 -8 71 26 98 34 26 64
25 92 -4z"/>
<path d="M2294 1171 c-2 -2 -4 -13 -4 -23 0 -16 9 -18 85 -18 47 0 85 -4 85
-8 0 -4 -27 -85 -60 -180 -49 -142 -57 -174 -45 -178 27 -11 42 4 54 51 6 25
34 108 62 183 55 149 61 172 51 173 -32 3 -224 4 -228 0z"/>
<path d="M2909 1161 c-56 -30 -63 -121 -13 -160 l25 -20 -27 -17 c-57 -38 -67
-129 -18 -175 18 -17 40 -24 84 -27 57 -4 61 -3 95 31 52 52 47 124 -12 170
l-24 19 26 26 c43 43 45 107 4 145 -27 25 -100 29 -140 8z m99 -37 c29 -20 29
-65 -1 -99 -20 -24 -25 -25 -49 -15 -36 17 -60 66 -46 96 16 35 60 43 96 18z
m2 -191 c60 -56 37 -133 -40 -133 -80 0 -107 96 -41 147 25 19 48 15 81 -14z"/>
<path d="M3240 1158 c-52 -31 -75 -108 -50 -172 19 -51 110 -83 160 -56 10 6
21 7 23 3 9 -14 -24 -98 -45 -115 -25 -22 -71 -23 -92 -3 -13 13 -16 13 -30
-1 -23 -22 -20 -31 15 -43 123 -43 200 38 201 213 1 56 -4 84 -21 119 -34 71
-99 93 -161 55z m96 -36 c18 -12 32 -46 37 -90 4 -35 2 -45 -16 -57 -22 -16
-64 -20 -92 -9 -40 16 -52 109 -18 146 16 18 68 24 89 10z"/>
<path d="M3572 1160 c-45 -28 -67 -95 -66 -205 1 -140 40 -201 128 -198 49 2
89 40 105 100 14 49 14 167 0 216 -24 87 -101 127 -167 87z m107 -61 c13 -24
12 -29 -15 -65 -36 -48 -54 -70 -89 -109 l-26 -30 4 86 c6 117 25 152 82 147
20 -2 34 -12 44 -29z m25 -156 c-6 -99 -30 -143 -80 -143 -23 0 -54 29 -54 49
0 23 122 174 130 161 4 -6 5 -36 4 -67z"/>
<path d="M3960 1171 c-41 -13 -110 -51 -110 -61 0 -17 15 -18 53 -5 27 9 37 9
38 1 0 -6 1 -85 2 -176 2 -158 3 -165 22 -165 19 0 20 7 21 208 1 114 1 207 0
206 0 0 -12 -4 -26 -8z"/>
<path d="M4218 1160 c-45 -24 -65 -55 -48 -76 10 -11 17 -9 40 16 22 24 36 30
68 30 50 0 72 -20 72 -67 0 -53 -23 -90 -111 -182 -47 -49 -79 -90 -77 -100 3
-14 20 -16 123 -16 113 0 120 1 120 20 0 18 -7 20 -75 22 -41 0 -81 2 -89 2
-7 1 12 27 44 59 105 104 134 172 105 246 -21 56 -108 79 -172 46z"/>
<path d="M4544 1166 c-38 -17 -46 -27 -34 -46 7 -11 14 -10 45 4 46 22 85 11
98 -28 17 -51 -26 -108 -75 -101 -9 2 -18 -5 -21 -15 -4 -14 3 -19 35 -23 56
-8 78 -31 78 -83 0 -33 -5 -46 -22 -58 -31 -22 -80 -20 -110 4 -25 19 -48 12
-48 -16 0 -14 53 -40 96 -47 66 -10 134 52 134 121 0 39 -33 92 -57 92 -13 0
-12 4 5 23 27 29 42 75 35 110 -12 59 -95 92 -159 63z"/>
<path d="M4933 1110 c1 -14 32 -35 113 -77 62 -32 111 -59 109 -62 -3 -2 -53
-31 -112 -65 -83 -48 -107 -66 -108 -83 -2 -31 5 -29 78 15 34 21 92 56 130
78 50 29 67 44 65 58 -2 14 -41 40 -128 87 -69 38 -130 68 -137 69 -6 0 -11
-9 -10 -20z"/>
</g>
</svg>
